<svg width="102" height="28" viewBox="0 0 102 28" fill="none" xmlns="http://www.w3.org/2000/svg">
<g clip-path="url(#clip0_381_28)">
<path d="M22.9976 0.5H0.5V25.5714H22.9976V0.5Z" fill="#5A8CBD"/>
<path d="M13.9722 23.1993L4.35667 14.4513L5.09765 14.8679L5.14935 22.6786H2.61621V9.40036H2.7196L12.1284 18.1136L11.577 17.8706L11.5253 9.90371H14.0412V23.1993H13.9722Z" fill="white"/>
<path d="M32.5484 24.6071L27.9379 9.48714H27.8306C27.8485 9.84716 27.8753 10.3872 27.9111 11.1071C27.9468 11.8271 27.9825 12.6012 28.0183 13.4291C28.054 14.2391 28.0719 14.9772 28.0719 15.6431V24.6071H24.4531V5.32914H29.9751L34.5053 20.0711H34.5857L39.3839 5.32914H44.9059V24.6071H41.1263V15.4811C41.1263 14.8692 41.1352 14.1672 41.1531 13.3751C41.1888 12.5831 41.2156 11.8361 41.2335 11.1341C41.2692 10.4142 41.296 9.87416 41.3139 9.51414H41.2067L36.2744 24.6071H32.5484ZM53.8417 9.59514C55.1997 9.59514 56.3615 9.85613 57.3265 10.3781C58.3092 10.9002 59.0688 11.6562 59.605 12.6461C60.1411 13.6361 60.4091 14.8511 60.4091 16.2911V18.2351H50.9735C51.0094 19.3691 51.3397 20.2601 51.9653 20.9081C52.6087 21.5561 53.4933 21.8801 54.6191 21.8801C55.5664 21.8801 56.4242 21.7901 57.1924 21.6101C57.9607 21.4121 58.7563 21.1151 59.5781 20.7191V23.8241C58.8635 24.1842 58.1038 24.4451 57.2997 24.6071C56.5132 24.7871 55.5573 24.8771 54.4315 24.8771C52.9662 24.8771 51.6705 24.6071 50.5446 24.0671C49.4188 23.5092 48.5342 22.6722 47.8909 21.5561C47.2476 20.4401 46.9259 19.0361 46.9259 17.3441C46.9259 15.6161 47.2119 14.1851 47.7837 13.0511C48.3734 11.8992 49.1866 11.0352 50.223 10.4591C51.2593 9.88313 52.4655 9.59514 53.8417 9.59514ZM53.8685 12.4571C53.1003 12.4571 52.4569 12.7092 51.9385 13.2131C51.4383 13.7171 51.1434 14.5001 51.0539 15.5621H56.6563C56.6563 14.9681 56.5491 14.4372 56.3347 13.9691C56.1379 13.5011 55.8344 13.1321 55.4233 12.8621C55.0121 12.5921 54.4942 12.4571 53.8685 12.4571ZM79.2219 9.59514C80.8839 9.59514 82.1347 10.0271 82.9747 10.8911C83.8325 11.7372 84.2614 13.1051 84.2614 14.9951V24.6071H80.2673V15.9941C80.2673 14.9321 80.0888 14.1402 79.7312 13.6181C79.3737 13.0781 78.8198 12.8081 78.0693 12.8081C77.0148 12.8081 76.2642 13.1861 75.8176 13.9421C75.371 14.6981 75.1475 15.7872 75.1475 17.2091V24.6071H71.1534V15.9941C71.1534 15.2921 71.073 14.7072 70.9122 14.2391C70.7513 13.7711 70.5101 13.4201 70.1884 13.1861C69.8667 12.9341 69.4556 12.8081 68.9553 12.8081C68.2225 12.8081 67.6419 12.9971 67.213 13.3751C66.7841 13.7531 66.4801 14.3022 66.3016 15.0221C66.123 15.7421 66.0335 16.6242 66.0335 17.6681V24.6071H62.0395V9.86514H65.0953L65.6314 11.7551H65.8459C66.1499 11.2512 66.5251 10.8462 66.9717 10.5401C67.4183 10.2161 67.9099 9.98216 68.446 9.83814C68.9999 9.67614 69.5542 9.59514 70.108 9.59514C71.1802 9.59514 72.0916 9.77513 72.8422 10.1351C73.5927 10.4771 74.1647 11.0171 74.5577 11.7551H74.9062C75.3528 10.9991 75.9693 10.4501 76.7558 10.1081C77.56 9.76616 78.3819 9.59514 79.2219 9.59514ZM100.061 17.2091C100.061 18.4332 99.8915 19.5221 99.5521 20.4761C99.2304 21.4302 98.7566 22.2402 98.1314 22.9061C97.5235 23.5541 96.782 24.0492 95.9065 24.3911C95.0306 24.7151 94.0388 24.8771 92.9311 24.8771C91.9125 24.8771 90.9652 24.7151 90.0897 24.3911C89.2319 24.0492 88.49 23.5541 87.8648 22.9061C87.2392 22.2402 86.7476 21.4302 86.3905 20.4761C86.0507 19.5221 85.8812 18.4332 85.8812 17.2091C85.8812 15.5712 86.167 14.1942 86.739 13.0781C87.3105 11.9441 88.1329 11.0801 89.2051 10.4861C90.2774 9.89214 91.5458 9.59514 93.0115 9.59514C94.3872 9.59514 95.6026 9.89214 96.6571 10.4861C97.7112 11.0801 98.5421 11.9441 99.15 13.0781C99.7575 14.1942 100.061 15.5712 100.061 17.2091ZM89.9557 17.2091C89.9557 18.1811 90.0538 19.0002 90.2506 19.6661C90.465 20.3141 90.7953 20.8092 91.2424 21.1511C91.689 21.4751 92.2696 21.6371 92.9847 21.6371C93.6994 21.6371 94.2714 21.4751 94.7003 21.1511C95.1469 20.8092 95.4686 20.3141 95.6653 19.6661C95.8797 19.0002 95.987 18.1811 95.987 17.2091C95.987 16.2371 95.8797 15.4271 95.6653 14.7791C95.4686 14.1311 95.1469 13.6451 94.7003 13.3211C94.2532 12.9971 93.6726 12.8351 92.9579 12.8351C91.9034 12.8351 91.1351 13.2041 90.6526 13.9421C90.1878 14.6621 89.9557 15.7511 89.9557 17.2091Z" fill="white"/>
<path d="M101.5 25.5714H0.5V27.5H101.5V25.5714Z" fill="#5A8CBD"/>
</g>
<defs>
<clipPath id="clip0_381_28">
<rect width="101" height="27" fill="white" transform="translate(0.5 0.5)"/>
</clipPath>
</defs>
</svg>
