<svg width="376" height="45" viewBox="0 0 376 45" fill="none" xmlns="http://www.w3.org/2000/svg">
<path d="M1.46542 7.62165C-0.137373 5.09326 2.54517 2.03455 5.26108 3.29373L13.0896 6.92326L17.9057 2.28915C19.8219 0.445292 22.8462 0.424022 24.7883 2.24074L29.7937 6.92326L35.8095 1.8584C37.7464 0.227668 40.5965 0.302196 42.4455 2.03192L47.6742 6.92326L54.1757 1.71014C56.1155 0.154704 58.9035 0.260997 60.7193 1.95961L66.0253 6.92326L70.6341 2.48863C72.6328 0.565467 75.8149 0.636744 77.7255 2.64747L81.7883 6.92326L85.9256 2.70105C87.9073 0.678738 91.1712 0.703831 93.1216 2.75638L97.0809 6.92326L100.969 2.95525C103.043 0.839167 106.491 0.979995 108.385 3.25811L111.432 6.92326L116.161 2.50003C118.212 0.580967 121.441 0.728016 123.31 2.82558L126.96 6.92326L130.627 3.18098C132.778 0.985962 136.381 1.23256 138.213 3.70013L140.606 6.92326L143.8 3.33786C145.834 1.05444 149.423 1.11564 151.378 3.46709L154.251 6.92326L158.612 2.72784C160.704 0.714223 164.067 0.901092 165.923 3.13421L169.073 6.92326L172.854 2.81592C174.773 0.731419 178.039 0.656072 180.052 2.64986L184.366 6.92326L188.385 2.82215C190.411 0.754503 193.764 0.834199 195.689 2.99577L199.188 6.92326L203.739 2.54433C205.76 0.599659 208.985 0.69745 210.884 2.76101L214.716 6.92326L218.33 2.99645C220.311 0.844825 223.707 0.844828 225.688 2.99646L229.303 6.92326L233.493 2.77292C235.552 0.733125 238.909 0.866208 240.8 3.06264L244.125 6.92326L247.971 2.87565C249.963 0.778434 253.315 0.804971 255.274 2.93348L258.947 6.92326L261.914 3.47769C263.931 1.13469 267.57 1.16618 269.547 3.54375L272.357 6.92326L275.18 3.64543C277.245 1.24671 280.992 1.34689 282.926 3.85255L285.297 6.92326L288.491 3.33784C290.525 1.05443 294.114 1.11564 296.069 3.46708L298.942 6.92326L302.788 2.87565C304.781 0.778438 308.133 0.804977 310.092 2.93349L313.764 6.92326L318.018 2.70993C320.054 0.693527 323.364 0.796936 325.27 2.93647L328.822 6.92326L333.014 2.64456C334.975 0.643813 338.196 0.643812 340.157 2.64456L344.35 6.92326L349.97 2.08193C351.978 0.352087 354.987 0.489956 356.829 2.39619L361.203 6.92326L370.994 3.00456C373.815 1.8755 376.334 5.17417 374.502 7.59846L372.817 9.82845V44.9549H4.85511L4.70372 12.73L1.46542 7.62165Z" fill="#CECECE"/>
</svg>
